#N canvas 484 193 466 316 10;
#X obj 20 130 dac~;
#X obj 20 219 tgl 15 0 empty empty empty 0 -6 0 8 -262144 -1 -1 0 1
;
#X msg 20 251 \; pd dsp \$1;
#X obj 20 104 *~ 0.05;
#X obj 20 33 adc~;
#X obj 20 70 fathead~;
#X obj 70 104 *~ 0.05;
#X obj 112 47 hsl 90 8 0 0.1 0 0 empty empty empty -2 -8 0 10 -212981
-1 -1 0 1;
#X floatatom 109 61 5 0 0 0 - - -;
#X connect 1 0 2 0;
#X connect 3 0 0 0;
#X connect 4 0 5 0;
#X connect 4 1 5 1;
#X connect 5 0 3 0;
#X connect 5 1 6 0;
#X connect 6 0 0 1;
#X connect 7 0 8 0;
#X connect 8 0 6 1;
#X connect 8 0 3 1;
